<svg width="16" height="12" viewBox="0 0 16 12" fill="none" xmlns="http://www.w3.org/2000/svg">
<path d="M14.5197 6.72479H1.48027C1.28815 6.72479 1.10389 6.64847 0.968035 6.51261C0.832181 6.37676 0.755859 6.1925 0.755859 6.00038C0.755859 5.80825 0.832181 5.62399 0.968035 5.48814C1.10389 5.35229 1.28815 5.27596 1.48027 5.27596H14.5197C14.7118 5.27596 14.8961 5.35229 15.0319 5.48814C15.1678 5.62399 15.2441 5.80825 15.2441 6.00038C15.2441 6.1925 15.1678 6.37676 15.0319 6.51261C14.8961 6.64847 14.7118 6.72479 14.5197 6.72479ZM14.5197 11.7957H1.48027C1.28815 11.7957 1.10389 11.7194 0.968035 11.5835C0.832181 11.4476 0.755859 11.2634 0.755859 11.0713C0.755859 10.8791 0.832181 10.6949 0.968035 10.559C1.10389 10.4232 1.28815 10.3468 1.48027 10.3468H14.5197C14.7118 10.3468 14.8961 10.4232 15.0319 10.559C15.1678 10.6949 15.2441 10.8791 15.2441 11.0713C15.2441 11.2634 15.1678 11.4476 15.0319 11.5835C14.8961 11.7194 14.7118 11.7957 14.5197 11.7957ZM14.5197 1.6539H1.48027C1.28815 1.6539 1.10389 1.57758 0.968035 1.44173C0.832181 1.30587 0.755859 1.12162 0.755859 0.92949C0.755859 0.737364 0.832181 0.553107 0.968035 0.417254C1.10389 0.2814 1.28815 0.205078 1.48027 0.205078H14.5197C14.7118 0.205078 14.8961 0.2814 15.0319 0.417254C15.1678 0.553107 15.2441 0.737364 15.2441 0.92949C15.2441 1.12162 15.1678 1.30587 15.0319 1.44173C14.8961 1.57758 14.7118 1.6539 14.5197 1.6539Z" fill="#2E1039"/>
</svg>
